<!--?xml version="1.0" standalone="no"?-->
              <svg id="sw-js-blob-svg" viewBox="0 0 100 100" xmlns="http://www.w3.org/2000/svg" version="1.1">
                    <defs> 
                        <linearGradient id="sw-gradient" x1="0" x2="1" y1="1" y2="0">
                            <stop id="stop1" stop-color="rgba(117, 16, 247, 1)" offset="0%"></stop>
                            <stop id="stop2" stop-color="rgba(0, 255, 244, 1)" offset="100%"></stop>
                        </linearGradient>
                    </defs>
                <path fill="url(#sw-gradient)" d="M23,-33.6C30.1,-31.3,36.3,-25.3,40.2,-18C44.1,-10.7,45.5,-2,43.7,5.8C41.8,13.6,36.6,20.4,30.3,24.6C24.1,28.9,16.8,30.6,9.7,32.4C2.6,34.2,-4.3,36.2,-10.5,34.8C-16.8,33.5,-22.4,28.9,-28.4,23.7C-34.4,18.4,-40.9,12.6,-43.5,5.3C-46.1,-2.1,-44.8,-11,-40.2,-17.3C-35.6,-23.5,-27.7,-27.2,-20.5,-29.4C-13.2,-31.6,-6.6,-32.4,0.7,-33.5C8,-34.5,15.9,-35.9,23,-33.6Z" width="100%" height="100%" transform="translate(50 50)" stroke-width="0" style="transition: all 0.3s ease 0s;"></path>
              </svg>