<?xml version="1.0" encoding="UTF-8"?>
<svg width="549.2" height="255.4" viewBox="0 0 549.2 255.4"
    xmlns="http://www.w3.org/2000/svg">

    <g transform="translate(1331 316.8)">
        <g transform="matrix(.2677 0 0 .2662 -973.9 -231.6)">
            <path d="m-1334 159.5v-479.6h2063v959.2h-2063z" style="fill:#d1001f;stroke-width:1.714" inkscape:connector-curvature="0" sodipodi:nodetypes="ccccccccc"/>
            <g transform="translate(0 -31.44)">
                <path d="m-1002 159.7v-159.5l144.7 1.076c141.8 1.054 145 1.187 158.5 6.47 41.2 16.1 61.21 45.79 58.3 86.5-1.465 20.47-7.182 32.71-22.12 47.34l-11.77 11.53 14.08 9.412c16.1 10.77 28.88 26.32 32.59 39.65 3.687 13.27 3.152 39.6-1.095 53.9-7.492 25.23-29.16 45.93-57.91 55.33-15.41 5.037-21.59 5.279-165.7 6.493l-149.7 1.26zm264 112.4c23.48-1.639 27.2-2.56 35.31-8.751 13.65-10.41 18.49-19.99 18.5-36.65 5e-3 -7.858-1.597-17.39-3.56-21.19-5.441-10.52-19.9-21.97-30.17-23.9-5.068-0.9507-58.02-1.837-117.7-1.969l-108.5-0.2405-0.3976 44.34c-0.2187 24.39 0.0236 45.73 0.5385 47.42 0.7276 2.393 20.84 3.045 90.31 2.923 49.16-0.0857 101.2-0.98 115.6-1.987zm16.4-143.8c28.65-13.47 32.23-52.69 6.598-72.24-12.36-9.43-34.92-11.08-140.6-10.31l-88.49 0.6474-0.6778 41.79c-0.3728 22.98-0.2371 42.94 0.3016 44.34 0.6622 1.727 35.17 2.274 106.5 1.69 100.3-0.8203 106.1-1.115 116.3-5.913z" style="fill:#fff;stroke-width:3.695;stroke:#fff" inkscape:connector-curvature="0"/>
                <path d="m-561 224.3c0.0367-51.82 1.047-104.3 2.244-116.7 2.842-29.36 10.77-46.04 32.13-67.64 26.43-26.72 59.13-39.2 102.7-39.2 38.82 0 70.09 10.56 97.59 32.96l14.25 11.61 10.98-9.664c14.7-12.94 41.2-26.57 60.5-31.12 20.21-4.763 58.12-4.763 78.32 0 36.91 8.7 71.3 35.03 86.67 66.36l8.43 17.19 1.459 230.4h-53.67l-1.364-109.2c-1.308-104.8-1.577-109.7-6.551-119.4-12.17-23.86-30.8-37.15-59.3-42.32-39.57-7.175-77.18 10.91-91.96 44.21-4.68 10.54-5.045 17.61-6.138 119l-1.162 107.8h-53.52l-0.2362-33.87c-0.1299-18.63-0.9779-68.24-1.884-110.2l-1.648-76.37-7.228-13.11c-8.116-14.73-19.96-25.16-37.25-32.8-15.44-6.829-48.36-7.409-66.85-1.178-16.09 5.423-35.36 22.42-42.99 37.91-5.7 11.57-5.741 12.33-6.587 120.7l-0.8512 109h-56.19z" style="fill:#fff;stroke-width:3.695;stroke:#fff" inkscape:connector-curvature="0"/>
                <path d="m94.2 317.4c-48.96-7.925-73.85-24.98-86.91-59.55-5.225-13.83-5.447-17.79-5.447-96.95 0-81.44 0.078-82.72 5.927-97.24 12.09-30.02 36.46-47.87 77.83-57.01 28.88-6.378 192.2-6.365 221.7 0.0179 48.36 10.45 72.71 32.15 83.78 74.65 2.021 7.759 3.675 14.98 3.675 16.05 0 1.07-11.93 1.946-26.52 1.946h-26.52l-4.273-12.03c-5.429-15.29-19.55-28.25-36.77-33.75-10.64-3.401-26.47-4.395-84.94-5.333-98.32-1.578-125.8 2.808-143.4 22.88-12.78 14.56-13.79 21.23-13.79 91.05v64.05l6.893 14.04c7.282 14.83 14.81 21.05 34.02 28.08 14.32 5.245 84.13 8.09 142 5.787 36.38-1.448 46.13-2.658 58.04-7.197 25.29-9.64 37.12-27.55 39.09-59.18l0.6911-11.09-163.7-1.298v-44.27h219.2l-0.02 32.64c-0.032 56.47-7.685 83.4-29.51 103.8-14.42 13.49-27.02 20.03-51.35 26.66-17.26 4.705-26.65 5.213-108.8 5.891-67.61 0.5584-95.12-0.0993-110.9-2.651z" style="fill:#fff;stroke-width:3.695;stroke:#fff" inkscape:connector-curvature="0"/>
            </g>
        </g>
    </g>
</svg>
